<mxfile host="app.diagrams.net" modified="2023-01-07T19:48:07.835Z" agent="5.0 (Windows NT 10.0; Win64; x64) AppleWebKit/537.36 (KHTML, like Gecko) Chrome/108.0.0.0 Safari/537.36" etag="c-CwsOrXixmGahHZBN5V" version="20.8.3" type="github">
  <diagram id="sLZio3Ym5K4k4ha5mkxw" name="Страница 1">
    <mxGraphModel dx="1732" dy="492" grid="1" gridSize="10" guides="1" tooltips="1" connect="1" arrows="1" fold="1" page="1" pageScale="1" pageWidth="827" pageHeight="1169" math="0" shadow="0">
      <root>
        <mxCell id="0" />
        <mxCell id="1" parent="0" />
        <mxCell id="LaUAwsaN8R62iMyhsoGU-19" value="" style="endArrow=none;html=1;rounded=0;fontSize=14;entryX=0;entryY=0.5;entryDx=0;entryDy=0;entryPerimeter=0;" parent="1" edge="1">
          <mxGeometry width="50" height="50" relative="1" as="geometry">
            <mxPoint x="79.99999999999989" y="255" as="sourcePoint" />
            <mxPoint x="160" y="255" as="targetPoint" />
          </mxGeometry>
        </mxCell>
        <mxCell id="av7ua0j_1sHqPHWY3UU7-22" value="" style="endArrow=none;html=1;rounded=0;fontSize=14;exitX=1;exitY=0.5;exitDx=0;exitDy=0;exitPerimeter=0;" edge="1" parent="1">
          <mxGeometry width="50" height="50" relative="1" as="geometry">
            <mxPoint x="582" y="255" as="sourcePoint" />
            <mxPoint x="592" y="255" as="targetPoint" />
          </mxGeometry>
        </mxCell>
        <mxCell id="LaUAwsaN8R62iMyhsoGU-28" value="" style="ellipse;whiteSpace=wrap;html=1;fontSize=14;fillColor=#F5F5F5;fontColor=#333333;strokeColor=#666666;rounded=0;" parent="1" vertex="1">
          <mxGeometry x="-26" y="211" width="120" height="90" as="geometry" />
        </mxCell>
        <mxCell id="LaUAwsaN8R62iMyhsoGU-29" value="" style="ellipse;whiteSpace=wrap;html=1;fontSize=14;fillColor=#f5f5f5;fontColor=#333333;strokeColor=#666666;rounded=0;" parent="1" vertex="1">
          <mxGeometry x="388" y="570" width="130" height="100" as="geometry" />
        </mxCell>
        <mxCell id="LaUAwsaN8R62iMyhsoGU-25" value="" style="endArrow=none;html=1;rounded=0;fontSize=14;exitX=1;exitY=0.5;exitDx=0;exitDy=0;exitPerimeter=0;" parent="1" edge="1">
          <mxGeometry width="50" height="50" relative="1" as="geometry">
            <mxPoint x="740" y="255" as="sourcePoint" />
            <mxPoint x="820" y="255" as="targetPoint" />
          </mxGeometry>
        </mxCell>
        <mxCell id="LaUAwsaN8R62iMyhsoGU-30" value="" style="ellipse;whiteSpace=wrap;html=1;fontSize=14;fillColor=#f5f5f5;fontColor=#333333;strokeColor=#666666;rounded=0;" parent="1" vertex="1">
          <mxGeometry x="816" y="211" width="120" height="90" as="geometry" />
        </mxCell>
        <mxCell id="LaUAwsaN8R62iMyhsoGU-10" value="&lt;b&gt;&lt;font style=&quot;font-size: 14px;&quot;&gt;PC1&lt;/font&gt;&lt;/b&gt;" style="text;html=1;strokeColor=none;fillColor=none;align=center;verticalAlign=middle;whiteSpace=wrap;rounded=0;" parent="1" vertex="1">
          <mxGeometry x="856" y="301" width="40" height="20" as="geometry" />
        </mxCell>
        <mxCell id="LaUAwsaN8R62iMyhsoGU-11" value="&lt;b&gt;&lt;font style=&quot;font-size: 14px;&quot;&gt;PC2&lt;/font&gt;&lt;/b&gt;" style="text;html=1;strokeColor=none;fillColor=none;align=center;verticalAlign=middle;whiteSpace=wrap;rounded=0;" parent="1" vertex="1">
          <mxGeometry x="14" y="301" width="40" height="20" as="geometry" />
        </mxCell>
        <mxCell id="LaUAwsaN8R62iMyhsoGU-12" value="&lt;b&gt;&lt;font style=&quot;font-size: 14px;&quot;&gt;PC3&lt;/font&gt;&lt;/b&gt;" style="text;html=1;strokeColor=none;fillColor=none;align=center;verticalAlign=middle;whiteSpace=wrap;rounded=0;" parent="1" vertex="1">
          <mxGeometry x="430" y="670" width="40" height="20" as="geometry" />
        </mxCell>
        <mxCell id="LaUAwsaN8R62iMyhsoGU-13" value="&lt;b&gt;&lt;font style=&quot;font-size: 14px;&quot;&gt;R01.SPB&lt;/font&gt;&lt;/b&gt;" style="text;html=1;strokeColor=none;fillColor=none;align=center;verticalAlign=middle;whiteSpace=wrap;rounded=0;" parent="1" vertex="1">
          <mxGeometry x="690" y="210" width="60" height="20" as="geometry" />
        </mxCell>
        <mxCell id="LaUAwsaN8R62iMyhsoGU-16" value="&lt;b&gt;&lt;font style=&quot;font-size: 14px;&quot;&gt;R01.SVL&lt;/font&gt;&lt;/b&gt;" style="text;html=1;strokeColor=none;fillColor=none;align=center;verticalAlign=middle;whiteSpace=wrap;rounded=0;" parent="1" vertex="1">
          <mxGeometry x="480" y="466" width="60" height="20" as="geometry" />
        </mxCell>
        <mxCell id="LaUAwsaN8R62iMyhsoGU-20" value="" style="endArrow=none;html=1;rounded=0;fontSize=14;exitX=1;exitY=0.5;exitDx=0;exitDy=0;exitPerimeter=0;startArrow=none;" parent="1" source="LaUAwsaN8R62iMyhsoGU-55" target="av7ua0j_1sHqPHWY3UU7-17" edge="1">
          <mxGeometry width="50" height="50" relative="1" as="geometry">
            <mxPoint x="180" y="300" as="sourcePoint" />
            <mxPoint x="310" y="255" as="targetPoint" />
          </mxGeometry>
        </mxCell>
        <mxCell id="LaUAwsaN8R62iMyhsoGU-21" value="" style="endArrow=none;html=1;rounded=0;fontSize=14;exitX=1;exitY=0.5;exitDx=0;exitDy=0;exitPerimeter=0;startArrow=none;" parent="1" source="LaUAwsaN8R62iMyhsoGU-48" edge="1">
          <mxGeometry width="50" height="50" relative="1" as="geometry">
            <mxPoint x="240" y="265" as="sourcePoint" />
            <mxPoint x="550" y="255" as="targetPoint" />
          </mxGeometry>
        </mxCell>
        <mxCell id="LaUAwsaN8R62iMyhsoGU-22" value="" style="endArrow=none;html=1;rounded=0;fontSize=14;exitX=0;exitY=0.5;exitDx=0;exitDy=0;exitPerimeter=0;entryX=0.5;entryY=1;entryDx=0;entryDy=0;entryPerimeter=0;" parent="1" edge="1">
          <mxGeometry width="50" height="50" relative="1" as="geometry">
            <mxPoint x="430" y="345" as="sourcePoint" />
            <mxPoint x="330" y="270" as="targetPoint" />
          </mxGeometry>
        </mxCell>
        <mxCell id="LaUAwsaN8R62iMyhsoGU-23" value="" style="endArrow=none;html=1;rounded=0;fontSize=14;exitX=1;exitY=0.5;exitDx=0;exitDy=0;exitPerimeter=0;entryX=0.5;entryY=1;entryDx=0;entryDy=0;entryPerimeter=0;" parent="1" edge="1">
          <mxGeometry width="50" height="50" relative="1" as="geometry">
            <mxPoint x="470" y="345" as="sourcePoint" />
            <mxPoint x="570" y="270" as="targetPoint" />
          </mxGeometry>
        </mxCell>
        <mxCell id="LaUAwsaN8R62iMyhsoGU-24" value="" style="endArrow=none;html=1;rounded=0;fontSize=14;exitX=1;exitY=0.5;exitDx=0;exitDy=0;exitPerimeter=0;entryX=0;entryY=0.5;entryDx=0;entryDy=0;entryPerimeter=0;startArrow=none;" parent="1" source="LaUAwsaN8R62iMyhsoGU-51" edge="1">
          <mxGeometry width="50" height="50" relative="1" as="geometry">
            <mxPoint x="270" y="295" as="sourcePoint" />
            <mxPoint x="700" y="255" as="targetPoint" />
          </mxGeometry>
        </mxCell>
        <mxCell id="LaUAwsaN8R62iMyhsoGU-26" value="" style="endArrow=none;html=1;rounded=0;fontSize=14;exitX=0.5;exitY=1;exitDx=0;exitDy=0;exitPerimeter=0;entryX=0.5;entryY=0;entryDx=0;entryDy=0;entryPerimeter=0;startArrow=none;" parent="1" source="LaUAwsaN8R62iMyhsoGU-42" edge="1">
          <mxGeometry width="50" height="50" relative="1" as="geometry">
            <mxPoint x="610" y="296" as="sourcePoint" />
            <mxPoint x="450" y="461" as="targetPoint" />
          </mxGeometry>
        </mxCell>
        <mxCell id="LaUAwsaN8R62iMyhsoGU-27" value="" style="endArrow=none;html=1;rounded=0;fontSize=14;exitX=0.5;exitY=1;exitDx=0;exitDy=0;exitPerimeter=0;entryX=0.5;entryY=0;entryDx=0;entryDy=0;entryPerimeter=0;startArrow=none;" parent="1" source="LaUAwsaN8R62iMyhsoGU-53" edge="1">
          <mxGeometry width="50" height="50" relative="1" as="geometry">
            <mxPoint x="620" y="311" as="sourcePoint" />
            <mxPoint x="450" y="576" as="targetPoint" />
          </mxGeometry>
        </mxCell>
        <mxCell id="LaUAwsaN8R62iMyhsoGU-32" value="&lt;span style=&quot;font-size: 14px;&quot;&gt;&lt;b&gt;VRF_DEVOPS&lt;/b&gt;&lt;/span&gt;" style="text;html=1;strokeColor=#1A1A1A;fillColor=none;align=center;verticalAlign=middle;whiteSpace=wrap;rounded=1;perimeterSpacing=0;" parent="1" vertex="1">
          <mxGeometry x="525" y="640" width="100" height="20" as="geometry" />
        </mxCell>
        <mxCell id="LaUAwsaN8R62iMyhsoGU-34" value="eth2" style="text;html=1;strokeColor=#666666;fillColor=#f5f5f5;align=center;verticalAlign=middle;whiteSpace=wrap;rounded=1;fontSize=14;fontColor=#333333;" parent="1" vertex="1">
          <mxGeometry x="74" y="216" width="40" height="20" as="geometry" />
        </mxCell>
        <mxCell id="LaUAwsaN8R62iMyhsoGU-35" value="eth2" style="text;html=1;strokeColor=#666666;fillColor=#f5f5f5;align=center;verticalAlign=middle;whiteSpace=wrap;rounded=1;fontSize=14;fontColor=#333333;" parent="1" vertex="1">
          <mxGeometry x="430" y="565" width="40" height="20" as="geometry" />
        </mxCell>
        <mxCell id="LaUAwsaN8R62iMyhsoGU-36" value="eth2" style="text;html=1;strokeColor=#666666;fillColor=#f5f5f5;align=center;verticalAlign=middle;whiteSpace=wrap;rounded=1;fontSize=14;fontColor=#333333;" parent="1" vertex="1">
          <mxGeometry x="805" y="215" width="40" height="20" as="geometry" />
        </mxCell>
        <mxCell id="LaUAwsaN8R62iMyhsoGU-38" value="eth2" style="text;html=1;strokeColor=#666666;fillColor=#f5f5f5;align=center;verticalAlign=middle;whiteSpace=wrap;rounded=1;fontSize=14;fontColor=#333333;" parent="1" vertex="1">
          <mxGeometry x="744" y="253" width="40" height="20" as="geometry" />
        </mxCell>
        <mxCell id="LaUAwsaN8R62iMyhsoGU-39" value="eth2" style="text;html=1;strokeColor=#666666;fillColor=#f5f5f5;align=center;verticalAlign=middle;whiteSpace=wrap;rounded=1;fontSize=14;fontColor=#333333;" parent="1" vertex="1">
          <mxGeometry x="478" y="329" width="40" height="20" as="geometry" />
        </mxCell>
        <mxCell id="LaUAwsaN8R62iMyhsoGU-40" value="eth3" style="text;html=1;strokeColor=#666666;fillColor=#f5f5f5;align=center;verticalAlign=middle;whiteSpace=wrap;rounded=1;fontSize=14;fontColor=#333333;" parent="1" vertex="1">
          <mxGeometry x="124" y="275" width="40" height="20" as="geometry" />
        </mxCell>
        <mxCell id="LaUAwsaN8R62iMyhsoGU-41" value="eth3" style="text;html=1;strokeColor=#666666;fillColor=#f5f5f5;align=center;verticalAlign=middle;whiteSpace=wrap;rounded=1;fontSize=14;fontColor=#333333;" parent="1" vertex="1">
          <mxGeometry x="330" y="280" width="40" height="20" as="geometry" />
        </mxCell>
        <mxCell id="LaUAwsaN8R62iMyhsoGU-42" value="eth2" style="text;html=1;strokeColor=#666666;fillColor=#f5f5f5;align=center;verticalAlign=middle;whiteSpace=wrap;rounded=1;fontSize=14;fontColor=#333333;" parent="1" vertex="1">
          <mxGeometry x="430" y="428" width="40" height="20" as="geometry" />
        </mxCell>
        <mxCell id="LaUAwsaN8R62iMyhsoGU-43" value="" style="endArrow=none;html=1;rounded=0;fontSize=14;exitX=0.5;exitY=1;exitDx=0;exitDy=0;exitPerimeter=0;entryX=0.5;entryY=0;entryDx=0;entryDy=0;entryPerimeter=0;startArrow=none;" parent="1" source="LaUAwsaN8R62iMyhsoGU-57" target="LaUAwsaN8R62iMyhsoGU-42" edge="1">
          <mxGeometry width="50" height="50" relative="1" as="geometry">
            <mxPoint x="450" y="360" as="sourcePoint" />
            <mxPoint x="450" y="440" as="targetPoint" />
          </mxGeometry>
        </mxCell>
        <mxCell id="LaUAwsaN8R62iMyhsoGU-44" value="eth2" style="text;html=1;strokeColor=#666666;fillColor=#f5f5f5;align=center;verticalAlign=middle;whiteSpace=wrap;rounded=1;fontSize=14;fontColor=#333333;" parent="1" vertex="1">
          <mxGeometry x="590" y="245" width="40" height="20" as="geometry" />
        </mxCell>
        <mxCell id="LaUAwsaN8R62iMyhsoGU-45" value="" style="endArrow=none;html=1;rounded=0;fontSize=14;exitX=1;exitY=0.5;exitDx=0;exitDy=0;exitPerimeter=0;entryX=0;entryY=0.5;entryDx=0;entryDy=0;entryPerimeter=0;" parent="1" target="LaUAwsaN8R62iMyhsoGU-44" edge="1">
          <mxGeometry width="50" height="50" relative="1" as="geometry">
            <mxPoint x="590" y="255" as="sourcePoint" />
            <mxPoint x="670" y="255" as="targetPoint" />
          </mxGeometry>
        </mxCell>
        <mxCell id="LaUAwsaN8R62iMyhsoGU-46" value="eth2" style="text;html=1;strokeColor=#666666;fillColor=#f5f5f5;align=center;verticalAlign=middle;whiteSpace=wrap;rounded=1;fontSize=14;fontColor=#333333;" parent="1" vertex="1">
          <mxGeometry x="360" y="245" width="40" height="20" as="geometry" />
        </mxCell>
        <mxCell id="LaUAwsaN8R62iMyhsoGU-47" value="" style="endArrow=none;html=1;rounded=0;fontSize=14;exitX=1;exitY=0.5;exitDx=0;exitDy=0;exitPerimeter=0;" parent="1" target="LaUAwsaN8R62iMyhsoGU-46" edge="1">
          <mxGeometry width="50" height="50" relative="1" as="geometry">
            <mxPoint x="350" y="255" as="sourcePoint" />
            <mxPoint x="550" y="255" as="targetPoint" />
          </mxGeometry>
        </mxCell>
        <mxCell id="LaUAwsaN8R62iMyhsoGU-48" value="eth3" style="text;html=1;strokeColor=#666666;fillColor=#f5f5f5;align=center;verticalAlign=middle;whiteSpace=wrap;rounded=1;fontSize=14;fontColor=#333333;" parent="1" vertex="1">
          <mxGeometry x="500" y="245" width="40" height="20" as="geometry" />
        </mxCell>
        <mxCell id="LaUAwsaN8R62iMyhsoGU-49" value="" style="endArrow=none;html=1;rounded=0;fontSize=14;exitX=1;exitY=0.5;exitDx=0;exitDy=0;exitPerimeter=0;startArrow=none;" parent="1" source="LaUAwsaN8R62iMyhsoGU-46" target="LaUAwsaN8R62iMyhsoGU-48" edge="1">
          <mxGeometry width="50" height="50" relative="1" as="geometry">
            <mxPoint x="400" y="255" as="sourcePoint" />
            <mxPoint x="550" y="255" as="targetPoint" />
          </mxGeometry>
        </mxCell>
        <mxCell id="LaUAwsaN8R62iMyhsoGU-50" value="eth3" style="text;html=1;strokeColor=#666666;fillColor=#f5f5f5;align=center;verticalAlign=middle;whiteSpace=wrap;rounded=1;fontSize=14;fontColor=#333333;" parent="1" vertex="1">
          <mxGeometry x="380" y="329" width="40" height="20" as="geometry" />
        </mxCell>
        <mxCell id="LaUAwsaN8R62iMyhsoGU-51" value="eth3" style="text;html=1;strokeColor=#666666;fillColor=#f5f5f5;align=center;verticalAlign=middle;whiteSpace=wrap;rounded=1;fontSize=14;fontColor=#333333;" parent="1" vertex="1">
          <mxGeometry x="655" y="245" width="40" height="20" as="geometry" />
        </mxCell>
        <mxCell id="LaUAwsaN8R62iMyhsoGU-52" value="" style="endArrow=none;html=1;rounded=0;fontSize=14;exitX=1;exitY=0.5;exitDx=0;exitDy=0;exitPerimeter=0;entryX=0;entryY=0.5;entryDx=0;entryDy=0;entryPerimeter=0;startArrow=none;" parent="1" source="LaUAwsaN8R62iMyhsoGU-44" target="LaUAwsaN8R62iMyhsoGU-51" edge="1">
          <mxGeometry width="50" height="50" relative="1" as="geometry">
            <mxPoint x="630" y="255" as="sourcePoint" />
            <mxPoint x="700" y="255" as="targetPoint" />
          </mxGeometry>
        </mxCell>
        <mxCell id="LaUAwsaN8R62iMyhsoGU-53" value="eth3" style="text;html=1;strokeColor=#666666;fillColor=#f5f5f5;align=center;verticalAlign=middle;whiteSpace=wrap;rounded=1;fontSize=14;fontColor=#333333;" parent="1" vertex="1">
          <mxGeometry x="430" y="508" width="40" height="20" as="geometry" />
        </mxCell>
        <mxCell id="LaUAwsaN8R62iMyhsoGU-54" value="" style="endArrow=none;html=1;rounded=0;fontSize=14;exitX=0.5;exitY=1;exitDx=0;exitDy=0;exitPerimeter=0;entryX=0.5;entryY=0;entryDx=0;entryDy=0;entryPerimeter=0;" parent="1" target="LaUAwsaN8R62iMyhsoGU-53" edge="1">
          <mxGeometry width="50" height="50" relative="1" as="geometry">
            <mxPoint x="450" y="496" as="sourcePoint" />
            <mxPoint x="450" y="576" as="targetPoint" />
          </mxGeometry>
        </mxCell>
        <mxCell id="LaUAwsaN8R62iMyhsoGU-55" value="eth4" style="text;html=1;strokeColor=#666666;fillColor=#f5f5f5;align=center;verticalAlign=middle;whiteSpace=wrap;rounded=1;fontSize=14;fontColor=#333333;" parent="1" vertex="1">
          <mxGeometry x="265" y="245" width="40" height="20" as="geometry" />
        </mxCell>
        <mxCell id="LaUAwsaN8R62iMyhsoGU-56" value="" style="endArrow=none;html=1;rounded=0;fontSize=14;exitX=1;exitY=0.5;exitDx=0;exitDy=0;exitPerimeter=0;entryX=0;entryY=0.5;entryDx=0;entryDy=0;entryPerimeter=0;startArrow=none;" parent="1" source="LaUAwsaN8R62iMyhsoGU-37" target="LaUAwsaN8R62iMyhsoGU-55" edge="1">
          <mxGeometry width="50" height="50" relative="1" as="geometry">
            <mxPoint x="200" y="255" as="sourcePoint" />
            <mxPoint x="310" y="255" as="targetPoint" />
          </mxGeometry>
        </mxCell>
        <mxCell id="LaUAwsaN8R62iMyhsoGU-57" value="eth4" style="text;html=1;strokeColor=#666666;fillColor=#f5f5f5;align=center;verticalAlign=middle;whiteSpace=wrap;rounded=1;fontSize=14;fontColor=#333333;" parent="1" vertex="1">
          <mxGeometry x="430" y="373" width="40" height="20" as="geometry" />
        </mxCell>
        <mxCell id="LaUAwsaN8R62iMyhsoGU-58" value="" style="endArrow=none;html=1;rounded=0;fontSize=14;exitX=0.5;exitY=1;exitDx=0;exitDy=0;exitPerimeter=0;entryX=0.5;entryY=0;entryDx=0;entryDy=0;entryPerimeter=0;" parent="1" target="LaUAwsaN8R62iMyhsoGU-57" edge="1">
          <mxGeometry width="50" height="50" relative="1" as="geometry">
            <mxPoint x="450" y="360" as="sourcePoint" />
            <mxPoint x="450" y="410" as="targetPoint" />
          </mxGeometry>
        </mxCell>
        <mxCell id="LaUAwsaN8R62iMyhsoGU-59" value="eth4" style="text;html=1;strokeColor=#666666;fillColor=#f5f5f5;align=center;verticalAlign=middle;whiteSpace=wrap;rounded=1;fontSize=14;fontColor=#333333;" parent="1" vertex="1">
          <mxGeometry x="535" y="280" width="40" height="20" as="geometry" />
        </mxCell>
        <mxCell id="LaUAwsaN8R62iMyhsoGU-60" value="&lt;font style=&quot;font-size: 12px;&quot;&gt;&lt;b&gt;172.20.23.21&lt;/b&gt;&lt;/font&gt;" style="text;html=1;strokeColor=none;fillColor=none;align=center;verticalAlign=middle;whiteSpace=wrap;rounded=0;fontSize=14;" parent="1" vertex="1">
          <mxGeometry x="836" y="316" width="80" height="20" as="geometry" />
        </mxCell>
        <mxCell id="LaUAwsaN8R62iMyhsoGU-61" value="&lt;font style=&quot;font-size: 12px;&quot;&gt;&lt;b&gt;172.20.23.22&lt;/b&gt;&lt;/font&gt;" style="text;html=1;strokeColor=none;fillColor=none;align=center;verticalAlign=middle;whiteSpace=wrap;rounded=0;fontSize=14;" parent="1" vertex="1">
          <mxGeometry x="410" y="685" width="80" height="20" as="geometry" />
        </mxCell>
        <mxCell id="LaUAwsaN8R62iMyhsoGU-62" value="&lt;font style=&quot;font-size: 12px;&quot;&gt;&lt;b&gt;172.20.23.23&lt;/b&gt;&lt;/font&gt;" style="text;html=1;strokeColor=none;fillColor=none;align=center;verticalAlign=middle;whiteSpace=wrap;rounded=0;fontSize=14;" parent="1" vertex="1">
          <mxGeometry x="-6" y="316" width="80" height="20" as="geometry" />
        </mxCell>
        <mxCell id="LaUAwsaN8R62iMyhsoGU-63" value="&lt;font style=&quot;font-size: 12px;&quot;&gt;192.168.30.2&lt;/font&gt;" style="text;html=1;strokeColor=none;fillColor=none;align=center;verticalAlign=middle;whiteSpace=wrap;rounded=0;fontSize=14;" parent="1" vertex="1">
          <mxGeometry x="354" y="555" width="80" height="20" as="geometry" />
        </mxCell>
        <mxCell id="LaUAwsaN8R62iMyhsoGU-64" value="&lt;font style=&quot;font-size: 12px;&quot;&gt;192.168.30.1&lt;/font&gt;" style="text;html=1;strokeColor=none;fillColor=none;align=center;verticalAlign=middle;whiteSpace=wrap;rounded=0;fontSize=14;" parent="1" vertex="1">
          <mxGeometry x="475" y="506" width="80" height="20" as="geometry" />
        </mxCell>
        <mxCell id="LaUAwsaN8R62iMyhsoGU-65" value="&lt;font style=&quot;font-size: 12px;&quot;&gt;192.168.20.2&lt;/font&gt;" style="text;html=1;strokeColor=none;fillColor=none;align=center;verticalAlign=middle;whiteSpace=wrap;rounded=0;fontSize=14;" parent="1" vertex="1">
          <mxGeometry x="54" y="196" width="80" height="20" as="geometry" />
        </mxCell>
        <mxCell id="LaUAwsaN8R62iMyhsoGU-66" value="&lt;font style=&quot;font-size: 12px;&quot;&gt;192.168.20.1&lt;/font&gt;" style="text;html=1;strokeColor=none;fillColor=none;align=center;verticalAlign=middle;whiteSpace=wrap;rounded=0;fontSize=14;" parent="1" vertex="1">
          <mxGeometry x="104" y="295" width="80" height="20" as="geometry" />
        </mxCell>
        <mxCell id="LaUAwsaN8R62iMyhsoGU-67" value="&lt;font style=&quot;font-size: 12px;&quot;&gt;192.168.10.2&lt;/font&gt;" style="text;html=1;strokeColor=none;fillColor=none;align=center;verticalAlign=middle;whiteSpace=wrap;rounded=0;fontSize=14;" parent="1" vertex="1">
          <mxGeometry x="785" y="196" width="80" height="20" as="geometry" />
        </mxCell>
        <mxCell id="LaUAwsaN8R62iMyhsoGU-68" value="&lt;font style=&quot;font-size: 12px;&quot;&gt;192.168.10.1&lt;/font&gt;" style="text;html=1;strokeColor=none;fillColor=none;align=center;verticalAlign=middle;whiteSpace=wrap;rounded=0;fontSize=14;" parent="1" vertex="1">
          <mxGeometry x="724" y="273" width="80" height="20" as="geometry" />
        </mxCell>
        <mxCell id="LaUAwsaN8R62iMyhsoGU-69" value="&lt;font style=&quot;font-size: 12px;&quot;&gt;10.0.1.1&lt;/font&gt;" style="text;html=1;strokeColor=none;fillColor=none;align=center;verticalAlign=middle;whiteSpace=wrap;rounded=0;fontSize=14;" parent="1" vertex="1">
          <mxGeometry x="650" y="265" width="50" height="20" as="geometry" />
        </mxCell>
        <mxCell id="LaUAwsaN8R62iMyhsoGU-70" value="&lt;font style=&quot;font-size: 12px;&quot;&gt;10.0.1.2&lt;/font&gt;" style="text;html=1;strokeColor=none;fillColor=none;align=center;verticalAlign=middle;whiteSpace=wrap;rounded=0;fontSize=14;" parent="1" vertex="1">
          <mxGeometry x="585" y="225" width="50" height="20" as="geometry" />
        </mxCell>
        <mxCell id="LaUAwsaN8R62iMyhsoGU-71" value="&lt;font style=&quot;font-size: 12px;&quot;&gt;10.0.3.1&lt;/font&gt;" style="text;html=1;strokeColor=none;fillColor=none;align=center;verticalAlign=middle;whiteSpace=wrap;rounded=0;fontSize=14;" parent="1" vertex="1">
          <mxGeometry x="530" y="300" width="50" height="20" as="geometry" />
        </mxCell>
        <mxCell id="LaUAwsaN8R62iMyhsoGU-72" value="&lt;font style=&quot;font-size: 12px;&quot;&gt;10.0.2.1&lt;/font&gt;" style="text;html=1;strokeColor=none;fillColor=none;align=center;verticalAlign=middle;whiteSpace=wrap;rounded=0;fontSize=14;" parent="1" vertex="1">
          <mxGeometry x="495" y="225" width="50" height="20" as="geometry" />
        </mxCell>
        <mxCell id="LaUAwsaN8R62iMyhsoGU-73" value="&lt;font style=&quot;font-size: 12px;&quot;&gt;10.0.3.2&lt;/font&gt;" style="text;html=1;strokeColor=none;fillColor=none;align=center;verticalAlign=middle;whiteSpace=wrap;rounded=0;fontSize=14;" parent="1" vertex="1">
          <mxGeometry x="473" y="349" width="50" height="20" as="geometry" />
        </mxCell>
        <mxCell id="LaUAwsaN8R62iMyhsoGU-74" value="&lt;font style=&quot;font-size: 12px;&quot;&gt;10.0.2.2&lt;/font&gt;" style="text;html=1;strokeColor=none;fillColor=none;align=center;verticalAlign=middle;whiteSpace=wrap;rounded=0;fontSize=14;" parent="1" vertex="1">
          <mxGeometry x="355" y="225" width="50" height="20" as="geometry" />
        </mxCell>
        <mxCell id="LaUAwsaN8R62iMyhsoGU-75" value="&lt;font style=&quot;font-size: 12px;&quot;&gt;10.0.6.2&lt;/font&gt;" style="text;html=1;strokeColor=none;fillColor=none;align=center;verticalAlign=middle;whiteSpace=wrap;rounded=0;fontSize=14;" parent="1" vertex="1">
          <mxGeometry x="450" y="446" width="50" height="20" as="geometry" />
        </mxCell>
        <mxCell id="LaUAwsaN8R62iMyhsoGU-76" value="&lt;font style=&quot;font-size: 12px;&quot;&gt;10.0.6.1&lt;/font&gt;" style="text;html=1;strokeColor=none;fillColor=none;align=center;verticalAlign=middle;whiteSpace=wrap;rounded=0;fontSize=14;" parent="1" vertex="1">
          <mxGeometry x="450" y="393" width="50" height="20" as="geometry" />
        </mxCell>
        <mxCell id="LaUAwsaN8R62iMyhsoGU-77" value="&lt;font style=&quot;font-size: 12px;&quot;&gt;10.0.4.1&lt;/font&gt;" style="text;html=1;strokeColor=none;fillColor=none;align=center;verticalAlign=middle;whiteSpace=wrap;rounded=0;fontSize=14;" parent="1" vertex="1">
          <mxGeometry x="375" y="349" width="50" height="20" as="geometry" />
        </mxCell>
        <mxCell id="LaUAwsaN8R62iMyhsoGU-78" value="&lt;font style=&quot;font-size: 12px;&quot;&gt;10.0.4.2&lt;/font&gt;" style="text;html=1;strokeColor=none;fillColor=none;align=center;verticalAlign=middle;whiteSpace=wrap;rounded=0;fontSize=14;" parent="1" vertex="1">
          <mxGeometry x="325" y="296" width="50" height="20" as="geometry" />
        </mxCell>
        <mxCell id="LaUAwsaN8R62iMyhsoGU-79" value="&lt;font style=&quot;font-size: 12px;&quot;&gt;10.0.5.2&lt;/font&gt;" style="text;html=1;strokeColor=none;fillColor=none;align=center;verticalAlign=middle;whiteSpace=wrap;rounded=0;fontSize=14;" parent="1" vertex="1">
          <mxGeometry x="194" y="265" width="50" height="20" as="geometry" />
        </mxCell>
        <mxCell id="LaUAwsaN8R62iMyhsoGU-80" value="&lt;font style=&quot;font-size: 12px;&quot;&gt;10.0.5.1&lt;/font&gt;" style="text;html=1;strokeColor=none;fillColor=none;align=center;verticalAlign=middle;whiteSpace=wrap;rounded=0;fontSize=14;" parent="1" vertex="1">
          <mxGeometry x="260" y="225" width="50" height="20" as="geometry" />
        </mxCell>
        <mxCell id="LaUAwsaN8R62iMyhsoGU-81" value="&lt;font style=&quot;font-size: 12px;&quot;&gt;&lt;b&gt;172.20.23.16&lt;/b&gt;&lt;/font&gt;" style="text;html=1;strokeColor=none;fillColor=none;align=center;verticalAlign=middle;whiteSpace=wrap;rounded=0;fontSize=14;" parent="1" vertex="1">
          <mxGeometry x="475" y="486" width="80" height="20" as="geometry" />
        </mxCell>
        <mxCell id="LaUAwsaN8R62iMyhsoGU-82" value="&lt;font style=&quot;font-size: 12px;&quot;&gt;&lt;b&gt;172.20.23.11&lt;/b&gt;&lt;/font&gt;" style="text;html=1;strokeColor=none;fillColor=none;align=center;verticalAlign=middle;whiteSpace=wrap;rounded=0;fontSize=14;" parent="1" vertex="1">
          <mxGeometry x="680" y="225" width="80" height="20" as="geometry" />
        </mxCell>
        <mxCell id="LaUAwsaN8R62iMyhsoGU-87" value="&lt;span style=&quot;font-size: 12px;&quot;&gt;&lt;b&gt;Lo: 6.6.6.6&lt;br&gt;AS: 65530&lt;br&gt;&lt;/b&gt;&lt;/span&gt;" style="text;html=1;strokeColor=none;fillColor=none;align=center;verticalAlign=middle;whiteSpace=wrap;rounded=0;fontSize=14;" parent="1" vertex="1">
          <mxGeometry x="350" y="476" width="80" height="30" as="geometry" />
        </mxCell>
        <mxCell id="LaUAwsaN8R62iMyhsoGU-89" value="&lt;span style=&quot;font-size: 12px;&quot;&gt;&lt;b&gt;Lo: 1.1.1.1&lt;br&gt;AS: 65530&lt;br&gt;&lt;/b&gt;&lt;/span&gt;" style="text;html=1;strokeColor=none;fillColor=none;align=center;verticalAlign=middle;whiteSpace=wrap;rounded=0;fontSize=14;" parent="1" vertex="1">
          <mxGeometry x="680" y="180" width="80" height="30" as="geometry" />
        </mxCell>
        <mxCell id="LaUAwsaN8R62iMyhsoGU-93" value="" style="shape=mxgraph.cisco.routers.router;html=1;pointerEvents=1;dashed=0;fillColor=#036897;strokeColor=#ffffff;strokeWidth=2;verticalLabelPosition=bottom;verticalAlign=top;align=center;outlineConnect=0;rounded=0;" parent="1" vertex="1">
          <mxGeometry x="180" y="800" width="40" height="30" as="geometry" />
        </mxCell>
        <mxCell id="LaUAwsaN8R62iMyhsoGU-94" value="" style="shape=mxgraph.cisco.routers.router;html=1;pointerEvents=1;dashed=0;fillColor=#036897;strokeColor=#ffffff;strokeWidth=2;verticalLabelPosition=bottom;verticalAlign=top;align=center;outlineConnect=0;rounded=0;" parent="1" vertex="1">
          <mxGeometry x="330" y="800" width="40" height="30" as="geometry" />
        </mxCell>
        <mxCell id="LaUAwsaN8R62iMyhsoGU-95" value="" style="shape=mxgraph.cisco.routers.router;html=1;pointerEvents=1;dashed=0;fillColor=#036897;strokeColor=#ffffff;strokeWidth=2;verticalLabelPosition=bottom;verticalAlign=top;align=center;outlineConnect=0;rounded=0;" parent="1" vertex="1">
          <mxGeometry x="570" y="800" width="40" height="30" as="geometry" />
        </mxCell>
        <mxCell id="LaUAwsaN8R62iMyhsoGU-96" value="" style="shape=mxgraph.cisco.routers.router;html=1;pointerEvents=1;dashed=0;fillColor=#036897;strokeColor=#ffffff;strokeWidth=2;verticalLabelPosition=bottom;verticalAlign=top;align=center;outlineConnect=0;rounded=0;" parent="1" vertex="1">
          <mxGeometry x="720" y="800" width="40" height="30" as="geometry" />
        </mxCell>
        <mxCell id="LaUAwsaN8R62iMyhsoGU-97" value="" style="shape=mxgraph.cisco.routers.router;html=1;pointerEvents=1;dashed=0;fillColor=#036897;strokeColor=#ffffff;strokeWidth=2;verticalLabelPosition=bottom;verticalAlign=top;align=center;outlineConnect=0;rounded=0;" parent="1" vertex="1">
          <mxGeometry x="450" y="890" width="40" height="30" as="geometry" />
        </mxCell>
        <mxCell id="LaUAwsaN8R62iMyhsoGU-98" value="" style="shape=mxgraph.cisco.routers.router;html=1;pointerEvents=1;dashed=0;fillColor=#036897;strokeColor=#ffffff;strokeWidth=2;verticalLabelPosition=bottom;verticalAlign=top;align=center;outlineConnect=0;rounded=0;" parent="1" vertex="1">
          <mxGeometry x="450" y="1000" width="40" height="30" as="geometry" />
        </mxCell>
        <mxCell id="LaUAwsaN8R62iMyhsoGU-99" value="" style="shape=mxgraph.cisco.computers_and_peripherals.pc;html=1;pointerEvents=1;dashed=0;fillColor=#dae8fc;strokeColor=#6c8ebf;strokeWidth=2;verticalLabelPosition=bottom;verticalAlign=top;align=center;outlineConnect=0;rounded=0;" parent="1" vertex="1">
          <mxGeometry x="45" y="790" width="50" height="50" as="geometry" />
        </mxCell>
        <mxCell id="LaUAwsaN8R62iMyhsoGU-100" value="" style="shape=mxgraph.cisco.computers_and_peripherals.pc;html=1;pointerEvents=1;dashed=0;fillColor=#dae8fc;strokeColor=#6c8ebf;strokeWidth=2;verticalLabelPosition=bottom;verticalAlign=top;align=center;outlineConnect=0;rounded=0;" parent="1" vertex="1">
          <mxGeometry x="840" y="790" width="50" height="50" as="geometry" />
        </mxCell>
        <mxCell id="LaUAwsaN8R62iMyhsoGU-101" value="" style="shape=mxgraph.cisco.computers_and_peripherals.pc;html=1;pointerEvents=1;dashed=0;fillColor=#dae8fc;strokeColor=#6c8ebf;strokeWidth=2;verticalLabelPosition=bottom;verticalAlign=top;align=center;outlineConnect=0;rounded=0;" parent="1" vertex="1">
          <mxGeometry x="445" y="1110" width="50" height="50" as="geometry" />
        </mxCell>
        <mxCell id="LaUAwsaN8R62iMyhsoGU-102" value="&lt;b&gt;&lt;font style=&quot;font-size: 14px;&quot;&gt;PC1&lt;/font&gt;&lt;/b&gt;" style="text;html=1;strokeColor=none;fillColor=none;align=center;verticalAlign=middle;whiteSpace=wrap;rounded=0;" parent="1" vertex="1">
          <mxGeometry x="845" y="770" width="40" height="20" as="geometry" />
        </mxCell>
        <mxCell id="LaUAwsaN8R62iMyhsoGU-103" value="&lt;b&gt;&lt;font style=&quot;font-size: 14px;&quot;&gt;PC2&lt;/font&gt;&lt;/b&gt;" style="text;html=1;strokeColor=none;fillColor=none;align=center;verticalAlign=middle;whiteSpace=wrap;rounded=0;" parent="1" vertex="1">
          <mxGeometry x="450" y="1160" width="40" height="20" as="geometry" />
        </mxCell>
        <mxCell id="LaUAwsaN8R62iMyhsoGU-104" value="&lt;b&gt;&lt;font style=&quot;font-size: 14px;&quot;&gt;PC3&lt;/font&gt;&lt;/b&gt;" style="text;html=1;strokeColor=none;fillColor=none;align=center;verticalAlign=middle;whiteSpace=wrap;rounded=0;" parent="1" vertex="1">
          <mxGeometry x="55" y="770" width="40" height="20" as="geometry" />
        </mxCell>
        <mxCell id="LaUAwsaN8R62iMyhsoGU-105" value="&lt;b&gt;&lt;font style=&quot;font-size: 14px;&quot;&gt;R01.SPB&lt;/font&gt;&lt;/b&gt;" style="text;html=1;strokeColor=none;fillColor=none;align=center;verticalAlign=middle;whiteSpace=wrap;rounded=0;" parent="1" vertex="1">
          <mxGeometry x="710" y="770" width="60" height="20" as="geometry" />
        </mxCell>
        <mxCell id="LaUAwsaN8R62iMyhsoGU-106" value="&lt;b&gt;&lt;font style=&quot;font-size: 14px;&quot;&gt;R01.HKI&lt;/font&gt;&lt;/b&gt;" style="text;html=1;strokeColor=none;fillColor=none;align=center;verticalAlign=middle;whiteSpace=wrap;rounded=0;" parent="1" vertex="1">
          <mxGeometry x="560" y="770" width="60" height="20" as="geometry" />
        </mxCell>
        <mxCell id="LaUAwsaN8R62iMyhsoGU-107" value="&lt;b&gt;&lt;font style=&quot;font-size: 14px;&quot;&gt;R01.LBN&lt;/font&gt;&lt;/b&gt;" style="text;html=1;strokeColor=none;fillColor=none;align=center;verticalAlign=middle;whiteSpace=wrap;rounded=0;" parent="1" vertex="1">
          <mxGeometry x="445" y="860" width="60" height="20" as="geometry" />
        </mxCell>
        <mxCell id="LaUAwsaN8R62iMyhsoGU-108" value="&lt;b&gt;&lt;font style=&quot;font-size: 14px;&quot;&gt;R01.SVL&lt;/font&gt;&lt;/b&gt;" style="text;html=1;strokeColor=none;fillColor=none;align=center;verticalAlign=middle;whiteSpace=wrap;rounded=0;" parent="1" vertex="1">
          <mxGeometry x="500" y="1000" width="60" height="20" as="geometry" />
        </mxCell>
        <mxCell id="LaUAwsaN8R62iMyhsoGU-109" value="&lt;b&gt;&lt;font style=&quot;font-size: 14px;&quot;&gt;R01.LND&lt;/font&gt;&lt;/b&gt;" style="text;html=1;strokeColor=none;fillColor=none;align=center;verticalAlign=middle;whiteSpace=wrap;rounded=0;" parent="1" vertex="1">
          <mxGeometry x="320" y="770" width="60" height="20" as="geometry" />
        </mxCell>
        <mxCell id="LaUAwsaN8R62iMyhsoGU-110" value="&lt;b&gt;&lt;font style=&quot;font-size: 14px;&quot;&gt;R01.NY&lt;/font&gt;&lt;/b&gt;" style="text;html=1;strokeColor=none;fillColor=none;align=center;verticalAlign=middle;whiteSpace=wrap;rounded=0;" parent="1" vertex="1">
          <mxGeometry x="170" y="770" width="60" height="20" as="geometry" />
        </mxCell>
        <mxCell id="LaUAwsaN8R62iMyhsoGU-111" value="" style="endArrow=none;html=1;rounded=0;fontSize=14;entryX=0;entryY=0.5;entryDx=0;entryDy=0;entryPerimeter=0;" parent="1" source="LaUAwsaN8R62iMyhsoGU-99" target="LaUAwsaN8R62iMyhsoGU-93" edge="1">
          <mxGeometry width="50" height="50" relative="1" as="geometry">
            <mxPoint x="400" y="920" as="sourcePoint" />
            <mxPoint x="450" y="870" as="targetPoint" />
          </mxGeometry>
        </mxCell>
        <mxCell id="LaUAwsaN8R62iMyhsoGU-112" value="" style="endArrow=none;html=1;rounded=0;fontSize=14;exitX=1;exitY=0.5;exitDx=0;exitDy=0;exitPerimeter=0;entryX=0;entryY=0.5;entryDx=0;entryDy=0;entryPerimeter=0;startArrow=none;" parent="1" source="LaUAwsaN8R62iMyhsoGU-141" target="LaUAwsaN8R62iMyhsoGU-94" edge="1">
          <mxGeometry width="50" height="50" relative="1" as="geometry">
            <mxPoint x="200" y="860" as="sourcePoint" />
            <mxPoint x="280" y="860" as="targetPoint" />
          </mxGeometry>
        </mxCell>
        <mxCell id="LaUAwsaN8R62iMyhsoGU-113" value="" style="endArrow=none;html=1;rounded=0;fontSize=14;exitX=1;exitY=0.5;exitDx=0;exitDy=0;exitPerimeter=0;startArrow=none;" parent="1" source="LaUAwsaN8R62iMyhsoGU-134" target="LaUAwsaN8R62iMyhsoGU-95" edge="1">
          <mxGeometry width="50" height="50" relative="1" as="geometry">
            <mxPoint x="260" y="825" as="sourcePoint" />
            <mxPoint x="320" y="870" as="targetPoint" />
          </mxGeometry>
        </mxCell>
        <mxCell id="LaUAwsaN8R62iMyhsoGU-114" value="" style="endArrow=none;html=1;rounded=0;fontSize=14;exitX=0;exitY=0.5;exitDx=0;exitDy=0;exitPerimeter=0;entryX=0.5;entryY=1;entryDx=0;entryDy=0;entryPerimeter=0;" parent="1" source="LaUAwsaN8R62iMyhsoGU-97" target="LaUAwsaN8R62iMyhsoGU-94" edge="1">
          <mxGeometry width="50" height="50" relative="1" as="geometry">
            <mxPoint x="270" y="835" as="sourcePoint" />
            <mxPoint x="330" y="880" as="targetPoint" />
          </mxGeometry>
        </mxCell>
        <mxCell id="LaUAwsaN8R62iMyhsoGU-115" value="" style="endArrow=none;html=1;rounded=0;fontSize=14;exitX=1;exitY=0.5;exitDx=0;exitDy=0;exitPerimeter=0;entryX=0.5;entryY=1;entryDx=0;entryDy=0;entryPerimeter=0;" parent="1" source="LaUAwsaN8R62iMyhsoGU-97" target="LaUAwsaN8R62iMyhsoGU-95" edge="1">
          <mxGeometry width="50" height="50" relative="1" as="geometry">
            <mxPoint x="280" y="845" as="sourcePoint" />
            <mxPoint x="340" y="890" as="targetPoint" />
          </mxGeometry>
        </mxCell>
        <mxCell id="LaUAwsaN8R62iMyhsoGU-116" value="" style="endArrow=none;html=1;rounded=0;fontSize=14;exitX=1;exitY=0.5;exitDx=0;exitDy=0;exitPerimeter=0;entryX=0;entryY=0.5;entryDx=0;entryDy=0;entryPerimeter=0;startArrow=none;" parent="1" source="LaUAwsaN8R62iMyhsoGU-137" target="LaUAwsaN8R62iMyhsoGU-96" edge="1">
          <mxGeometry width="50" height="50" relative="1" as="geometry">
            <mxPoint x="290" y="855" as="sourcePoint" />
            <mxPoint x="350" y="900" as="targetPoint" />
          </mxGeometry>
        </mxCell>
        <mxCell id="LaUAwsaN8R62iMyhsoGU-117" value="" style="endArrow=none;html=1;rounded=0;fontSize=14;exitX=1;exitY=0.5;exitDx=0;exitDy=0;exitPerimeter=0;" parent="1" source="LaUAwsaN8R62iMyhsoGU-96" target="LaUAwsaN8R62iMyhsoGU-100" edge="1">
          <mxGeometry width="50" height="50" relative="1" as="geometry">
            <mxPoint x="650" y="825" as="sourcePoint" />
            <mxPoint x="730" y="825" as="targetPoint" />
          </mxGeometry>
        </mxCell>
        <mxCell id="LaUAwsaN8R62iMyhsoGU-118" value="" style="endArrow=none;html=1;rounded=0;fontSize=14;exitX=0.5;exitY=1;exitDx=0;exitDy=0;exitPerimeter=0;entryX=0.5;entryY=0;entryDx=0;entryDy=0;entryPerimeter=0;startArrow=none;" parent="1" source="LaUAwsaN8R62iMyhsoGU-128" target="LaUAwsaN8R62iMyhsoGU-98" edge="1">
          <mxGeometry width="50" height="50" relative="1" as="geometry">
            <mxPoint x="630" y="835" as="sourcePoint" />
            <mxPoint x="710" y="835" as="targetPoint" />
          </mxGeometry>
        </mxCell>
        <mxCell id="LaUAwsaN8R62iMyhsoGU-119" value="" style="endArrow=none;html=1;rounded=0;fontSize=14;exitX=0.5;exitY=1;exitDx=0;exitDy=0;exitPerimeter=0;entryX=0.5;entryY=0;entryDx=0;entryDy=0;entryPerimeter=0;startArrow=none;" parent="1" source="LaUAwsaN8R62iMyhsoGU-139" target="LaUAwsaN8R62iMyhsoGU-101" edge="1">
          <mxGeometry width="50" height="50" relative="1" as="geometry">
            <mxPoint x="640" y="845" as="sourcePoint" />
            <mxPoint x="720" y="845" as="targetPoint" />
          </mxGeometry>
        </mxCell>
        <mxCell id="LaUAwsaN8R62iMyhsoGU-120" value="eth2" style="text;html=1;strokeColor=#666666;fillColor=#f5f5f5;align=center;verticalAlign=middle;whiteSpace=wrap;rounded=0;fontSize=14;fontColor=#333333;" parent="1" vertex="1">
          <mxGeometry x="95" y="790" width="40" height="20" as="geometry" />
        </mxCell>
        <mxCell id="LaUAwsaN8R62iMyhsoGU-121" value="eth2" style="text;html=1;strokeColor=#666666;fillColor=#f5f5f5;align=center;verticalAlign=middle;whiteSpace=wrap;rounded=0;fontSize=14;fontColor=#333333;" parent="1" vertex="1">
          <mxGeometry x="450" y="1080" width="40" height="20" as="geometry" />
        </mxCell>
        <mxCell id="LaUAwsaN8R62iMyhsoGU-122" value="eth2" style="text;html=1;strokeColor=#666666;fillColor=#f5f5f5;align=center;verticalAlign=middle;whiteSpace=wrap;rounded=0;fontSize=14;fontColor=#333333;" parent="1" vertex="1">
          <mxGeometry x="805" y="780" width="40" height="20" as="geometry" />
        </mxCell>
        <mxCell id="LaUAwsaN8R62iMyhsoGU-123" value="eth2" style="text;html=1;strokeColor=#666666;fillColor=#f5f5f5;align=center;verticalAlign=middle;whiteSpace=wrap;rounded=0;fontSize=14;fontColor=#333333;" parent="1" vertex="1">
          <mxGeometry x="220" y="790" width="40" height="20" as="geometry" />
        </mxCell>
        <mxCell id="LaUAwsaN8R62iMyhsoGU-124" value="eth2" style="text;html=1;strokeColor=#666666;fillColor=#f5f5f5;align=center;verticalAlign=middle;whiteSpace=wrap;rounded=0;fontSize=14;fontColor=#333333;" parent="1" vertex="1">
          <mxGeometry x="760" y="820" width="40" height="20" as="geometry" />
        </mxCell>
        <mxCell id="LaUAwsaN8R62iMyhsoGU-125" value="eth2" style="text;html=1;strokeColor=#666666;fillColor=#f5f5f5;align=center;verticalAlign=middle;whiteSpace=wrap;rounded=0;fontSize=14;fontColor=#333333;" parent="1" vertex="1">
          <mxGeometry x="500" y="880" width="40" height="20" as="geometry" />
        </mxCell>
        <mxCell id="LaUAwsaN8R62iMyhsoGU-126" value="eth3" style="text;html=1;strokeColor=#666666;fillColor=#f5f5f5;align=center;verticalAlign=middle;whiteSpace=wrap;rounded=0;fontSize=14;fontColor=#333333;" parent="1" vertex="1">
          <mxGeometry x="150" y="830" width="40" height="20" as="geometry" />
        </mxCell>
        <mxCell id="LaUAwsaN8R62iMyhsoGU-127" value="eth3" style="text;html=1;strokeColor=#666666;fillColor=#f5f5f5;align=center;verticalAlign=middle;whiteSpace=wrap;rounded=0;fontSize=14;fontColor=#333333;" parent="1" vertex="1">
          <mxGeometry x="350" y="840" width="40" height="20" as="geometry" />
        </mxCell>
        <mxCell id="LaUAwsaN8R62iMyhsoGU-128" value="eth2" style="text;html=1;strokeColor=#666666;fillColor=#f5f5f5;align=center;verticalAlign=middle;whiteSpace=wrap;rounded=0;fontSize=14;fontColor=#333333;" parent="1" vertex="1">
          <mxGeometry x="450" y="970" width="40" height="20" as="geometry" />
        </mxCell>
        <mxCell id="LaUAwsaN8R62iMyhsoGU-129" value="" style="endArrow=none;html=1;rounded=0;fontSize=14;exitX=0.5;exitY=1;exitDx=0;exitDy=0;exitPerimeter=0;entryX=0.5;entryY=0;entryDx=0;entryDy=0;entryPerimeter=0;startArrow=none;" parent="1" source="LaUAwsaN8R62iMyhsoGU-143" target="LaUAwsaN8R62iMyhsoGU-128" edge="1">
          <mxGeometry width="50" height="50" relative="1" as="geometry">
            <mxPoint x="470" y="920" as="sourcePoint" />
            <mxPoint x="470" y="1000" as="targetPoint" />
          </mxGeometry>
        </mxCell>
        <mxCell id="LaUAwsaN8R62iMyhsoGU-130" value="eth2" style="text;html=1;strokeColor=#666666;fillColor=#f5f5f5;align=center;verticalAlign=middle;whiteSpace=wrap;rounded=0;fontSize=14;fontColor=#333333;" parent="1" vertex="1">
          <mxGeometry x="610" y="805" width="40" height="20" as="geometry" />
        </mxCell>
        <mxCell id="LaUAwsaN8R62iMyhsoGU-131" value="" style="endArrow=none;html=1;rounded=0;fontSize=14;exitX=1;exitY=0.5;exitDx=0;exitDy=0;exitPerimeter=0;entryX=0;entryY=0.5;entryDx=0;entryDy=0;entryPerimeter=0;" parent="1" source="LaUAwsaN8R62iMyhsoGU-95" target="LaUAwsaN8R62iMyhsoGU-130" edge="1">
          <mxGeometry width="50" height="50" relative="1" as="geometry">
            <mxPoint x="610" y="815" as="sourcePoint" />
            <mxPoint x="690" y="815" as="targetPoint" />
          </mxGeometry>
        </mxCell>
        <mxCell id="LaUAwsaN8R62iMyhsoGU-132" value="eth2" style="text;html=1;strokeColor=#666666;fillColor=#f5f5f5;align=center;verticalAlign=middle;whiteSpace=wrap;rounded=0;fontSize=14;fontColor=#333333;" parent="1" vertex="1">
          <mxGeometry x="380" y="805" width="40" height="20" as="geometry" />
        </mxCell>
        <mxCell id="LaUAwsaN8R62iMyhsoGU-133" value="" style="endArrow=none;html=1;rounded=0;fontSize=14;exitX=1;exitY=0.5;exitDx=0;exitDy=0;exitPerimeter=0;" parent="1" source="LaUAwsaN8R62iMyhsoGU-94" target="LaUAwsaN8R62iMyhsoGU-132" edge="1">
          <mxGeometry width="50" height="50" relative="1" as="geometry">
            <mxPoint x="370" y="815" as="sourcePoint" />
            <mxPoint x="570" y="815" as="targetPoint" />
          </mxGeometry>
        </mxCell>
        <mxCell id="LaUAwsaN8R62iMyhsoGU-134" value="eth3" style="text;html=1;strokeColor=#666666;fillColor=#f5f5f5;align=center;verticalAlign=middle;whiteSpace=wrap;rounded=0;fontSize=14;fontColor=#333333;" parent="1" vertex="1">
          <mxGeometry x="520" y="805" width="40" height="20" as="geometry" />
        </mxCell>
        <mxCell id="LaUAwsaN8R62iMyhsoGU-135" value="" style="endArrow=none;html=1;rounded=0;fontSize=14;exitX=1;exitY=0.5;exitDx=0;exitDy=0;exitPerimeter=0;startArrow=none;" parent="1" source="LaUAwsaN8R62iMyhsoGU-132" target="LaUAwsaN8R62iMyhsoGU-134" edge="1">
          <mxGeometry width="50" height="50" relative="1" as="geometry">
            <mxPoint x="420" y="815" as="sourcePoint" />
            <mxPoint x="570" y="815" as="targetPoint" />
          </mxGeometry>
        </mxCell>
        <mxCell id="LaUAwsaN8R62iMyhsoGU-136" value="eth3" style="text;html=1;strokeColor=#666666;fillColor=#f5f5f5;align=center;verticalAlign=middle;whiteSpace=wrap;rounded=0;fontSize=14;fontColor=#333333;" parent="1" vertex="1">
          <mxGeometry x="390" y="890" width="40" height="20" as="geometry" />
        </mxCell>
        <mxCell id="LaUAwsaN8R62iMyhsoGU-137" value="eth3" style="text;html=1;strokeColor=#666666;fillColor=#f5f5f5;align=center;verticalAlign=middle;whiteSpace=wrap;rounded=0;fontSize=14;fontColor=#333333;" parent="1" vertex="1">
          <mxGeometry x="670" y="805" width="40" height="20" as="geometry" />
        </mxCell>
        <mxCell id="LaUAwsaN8R62iMyhsoGU-138" value="" style="endArrow=none;html=1;rounded=0;fontSize=14;exitX=1;exitY=0.5;exitDx=0;exitDy=0;exitPerimeter=0;entryX=0;entryY=0.5;entryDx=0;entryDy=0;entryPerimeter=0;startArrow=none;" parent="1" source="LaUAwsaN8R62iMyhsoGU-130" target="LaUAwsaN8R62iMyhsoGU-137" edge="1">
          <mxGeometry width="50" height="50" relative="1" as="geometry">
            <mxPoint x="650" y="815" as="sourcePoint" />
            <mxPoint x="720" y="815" as="targetPoint" />
          </mxGeometry>
        </mxCell>
        <mxCell id="LaUAwsaN8R62iMyhsoGU-139" value="eth3" style="text;html=1;strokeColor=#666666;fillColor=#f5f5f5;align=center;verticalAlign=middle;whiteSpace=wrap;rounded=0;fontSize=14;fontColor=#333333;" parent="1" vertex="1">
          <mxGeometry x="450" y="1040" width="40" height="20" as="geometry" />
        </mxCell>
        <mxCell id="LaUAwsaN8R62iMyhsoGU-140" value="" style="endArrow=none;html=1;rounded=0;fontSize=14;exitX=0.5;exitY=1;exitDx=0;exitDy=0;exitPerimeter=0;entryX=0.5;entryY=0;entryDx=0;entryDy=0;entryPerimeter=0;" parent="1" source="LaUAwsaN8R62iMyhsoGU-98" target="LaUAwsaN8R62iMyhsoGU-139" edge="1">
          <mxGeometry width="50" height="50" relative="1" as="geometry">
            <mxPoint x="470" y="1030" as="sourcePoint" />
            <mxPoint x="470" y="1110" as="targetPoint" />
          </mxGeometry>
        </mxCell>
        <mxCell id="LaUAwsaN8R62iMyhsoGU-141" value="eth4" style="text;html=1;strokeColor=#666666;fillColor=#f5f5f5;align=center;verticalAlign=middle;whiteSpace=wrap;rounded=0;fontSize=14;fontColor=#333333;" parent="1" vertex="1">
          <mxGeometry x="280" y="805" width="40" height="20" as="geometry" />
        </mxCell>
        <mxCell id="LaUAwsaN8R62iMyhsoGU-142" value="" style="endArrow=none;html=1;rounded=0;fontSize=14;exitX=1;exitY=0.5;exitDx=0;exitDy=0;exitPerimeter=0;entryX=0;entryY=0.5;entryDx=0;entryDy=0;entryPerimeter=0;" parent="1" source="LaUAwsaN8R62iMyhsoGU-93" target="LaUAwsaN8R62iMyhsoGU-141" edge="1">
          <mxGeometry width="50" height="50" relative="1" as="geometry">
            <mxPoint x="220" y="815" as="sourcePoint" />
            <mxPoint x="330" y="815" as="targetPoint" />
          </mxGeometry>
        </mxCell>
        <mxCell id="LaUAwsaN8R62iMyhsoGU-143" value="eth4" style="text;html=1;strokeColor=#666666;fillColor=#f5f5f5;align=center;verticalAlign=middle;whiteSpace=wrap;rounded=0;fontSize=14;fontColor=#333333;" parent="1" vertex="1">
          <mxGeometry x="450" y="930" width="40" height="20" as="geometry" />
        </mxCell>
        <mxCell id="LaUAwsaN8R62iMyhsoGU-144" value="" style="endArrow=none;html=1;rounded=0;fontSize=14;exitX=0.5;exitY=1;exitDx=0;exitDy=0;exitPerimeter=0;entryX=0.5;entryY=0;entryDx=0;entryDy=0;entryPerimeter=0;" parent="1" source="LaUAwsaN8R62iMyhsoGU-97" target="LaUAwsaN8R62iMyhsoGU-143" edge="1">
          <mxGeometry width="50" height="50" relative="1" as="geometry">
            <mxPoint x="470" y="920" as="sourcePoint" />
            <mxPoint x="470" y="970" as="targetPoint" />
          </mxGeometry>
        </mxCell>
        <mxCell id="LaUAwsaN8R62iMyhsoGU-145" value="eth4" style="text;html=1;strokeColor=#666666;fillColor=#f5f5f5;align=center;verticalAlign=middle;whiteSpace=wrap;rounded=0;fontSize=14;fontColor=#333333;" parent="1" vertex="1">
          <mxGeometry x="580" y="840" width="40" height="20" as="geometry" />
        </mxCell>
        <mxCell id="LaUAwsaN8R62iMyhsoGU-146" value="&lt;font style=&quot;font-size: 12px;&quot;&gt;&lt;b&gt;172.20.23.21&lt;/b&gt;&lt;/font&gt;" style="text;html=1;strokeColor=none;fillColor=none;align=center;verticalAlign=middle;whiteSpace=wrap;rounded=0;fontSize=14;" parent="1" vertex="1">
          <mxGeometry x="825" y="840" width="80" height="20" as="geometry" />
        </mxCell>
        <mxCell id="LaUAwsaN8R62iMyhsoGU-147" value="&lt;font style=&quot;font-size: 12px;&quot;&gt;&lt;b&gt;172.20.23.22&lt;/b&gt;&lt;/font&gt;" style="text;html=1;strokeColor=none;fillColor=none;align=center;verticalAlign=middle;whiteSpace=wrap;rounded=0;fontSize=14;" parent="1" vertex="1">
          <mxGeometry x="495" y="1125" width="80" height="20" as="geometry" />
        </mxCell>
        <mxCell id="LaUAwsaN8R62iMyhsoGU-148" value="&lt;font style=&quot;font-size: 12px;&quot;&gt;&lt;b&gt;172.20.23.23&lt;/b&gt;&lt;/font&gt;" style="text;html=1;strokeColor=none;fillColor=none;align=center;verticalAlign=middle;whiteSpace=wrap;rounded=0;fontSize=14;" parent="1" vertex="1">
          <mxGeometry x="30" y="840" width="80" height="20" as="geometry" />
        </mxCell>
        <mxCell id="LaUAwsaN8R62iMyhsoGU-149" value="&lt;font style=&quot;font-size: 12px;&quot;&gt;192.168.0.3&lt;/font&gt;" style="text;html=1;strokeColor=none;fillColor=none;align=center;verticalAlign=middle;whiteSpace=wrap;rounded=0;fontSize=14;" parent="1" vertex="1">
          <mxGeometry x="370" y="1070" width="80" height="20" as="geometry" />
        </mxCell>
        <mxCell id="LaUAwsaN8R62iMyhsoGU-150" value="&lt;font style=&quot;font-size: 12px;&quot;&gt;VPLS&lt;/font&gt;" style="text;html=1;strokeColor=none;fillColor=none;align=center;verticalAlign=middle;whiteSpace=wrap;rounded=0;fontSize=14;" parent="1" vertex="1">
          <mxGeometry x="495" y="1040" width="45" height="20" as="geometry" />
        </mxCell>
        <mxCell id="LaUAwsaN8R62iMyhsoGU-151" value="&lt;font style=&quot;font-size: 12px;&quot;&gt;192.168.0.2&lt;/font&gt;" style="text;html=1;strokeColor=none;fillColor=none;align=center;verticalAlign=middle;whiteSpace=wrap;rounded=0;fontSize=14;" parent="1" vertex="1">
          <mxGeometry x="90" y="760" width="80" height="20" as="geometry" />
        </mxCell>
        <mxCell id="LaUAwsaN8R62iMyhsoGU-152" value="&lt;font style=&quot;font-size: 12px;&quot;&gt;VPLS&lt;/font&gt;" style="text;html=1;strokeColor=none;fillColor=none;align=center;verticalAlign=middle;whiteSpace=wrap;rounded=0;fontSize=14;" parent="1" vertex="1">
          <mxGeometry x="135" y="850" width="65" height="20" as="geometry" />
        </mxCell>
        <mxCell id="LaUAwsaN8R62iMyhsoGU-153" value="&lt;font style=&quot;font-size: 12px;&quot;&gt;192.168.0.1&lt;/font&gt;" style="text;html=1;strokeColor=none;fillColor=none;align=center;verticalAlign=middle;whiteSpace=wrap;rounded=0;fontSize=14;" parent="1" vertex="1">
          <mxGeometry x="780" y="750" width="80" height="20" as="geometry" />
        </mxCell>
        <mxCell id="LaUAwsaN8R62iMyhsoGU-154" value="&lt;font style=&quot;font-size: 12px;&quot;&gt;VPLS&lt;/font&gt;" style="text;html=1;strokeColor=none;fillColor=none;align=center;verticalAlign=middle;whiteSpace=wrap;rounded=0;fontSize=14;fontColor=#330000;" parent="1" vertex="1">
          <mxGeometry x="740" y="840" width="80" height="20" as="geometry" />
        </mxCell>
        <mxCell id="LaUAwsaN8R62iMyhsoGU-155" value="&lt;font style=&quot;font-size: 12px;&quot;&gt;10.0.1.1&lt;/font&gt;" style="text;html=1;strokeColor=none;fillColor=none;align=center;verticalAlign=middle;whiteSpace=wrap;rounded=0;fontSize=14;" parent="1" vertex="1">
          <mxGeometry x="670" y="830" width="50" height="20" as="geometry" />
        </mxCell>
        <mxCell id="LaUAwsaN8R62iMyhsoGU-156" value="&lt;font style=&quot;font-size: 12px;&quot;&gt;10.0.1.2&lt;/font&gt;" style="text;html=1;strokeColor=none;fillColor=none;align=center;verticalAlign=middle;whiteSpace=wrap;rounded=0;fontSize=14;" parent="1" vertex="1">
          <mxGeometry x="620" y="785" width="50" height="20" as="geometry" />
        </mxCell>
        <mxCell id="LaUAwsaN8R62iMyhsoGU-157" value="&lt;font style=&quot;font-size: 12px;&quot;&gt;10.0.3.1&lt;/font&gt;" style="text;html=1;strokeColor=none;fillColor=none;align=center;verticalAlign=middle;whiteSpace=wrap;rounded=0;fontSize=14;" parent="1" vertex="1">
          <mxGeometry x="575" y="860" width="50" height="20" as="geometry" />
        </mxCell>
        <mxCell id="LaUAwsaN8R62iMyhsoGU-158" value="&lt;font style=&quot;font-size: 12px;&quot;&gt;10.0.2.1&lt;/font&gt;" style="text;html=1;strokeColor=none;fillColor=none;align=center;verticalAlign=middle;whiteSpace=wrap;rounded=0;fontSize=14;" parent="1" vertex="1">
          <mxGeometry x="510" y="780" width="50" height="20" as="geometry" />
        </mxCell>
        <mxCell id="LaUAwsaN8R62iMyhsoGU-159" value="&lt;font style=&quot;font-size: 12px;&quot;&gt;10.0.3.2&lt;/font&gt;" style="text;html=1;strokeColor=none;fillColor=none;align=center;verticalAlign=middle;whiteSpace=wrap;rounded=0;fontSize=14;" parent="1" vertex="1">
          <mxGeometry x="505" y="900" width="50" height="20" as="geometry" />
        </mxCell>
        <mxCell id="LaUAwsaN8R62iMyhsoGU-160" value="&lt;font style=&quot;font-size: 12px;&quot;&gt;10.0.2.2&lt;/font&gt;" style="text;html=1;strokeColor=none;fillColor=none;align=center;verticalAlign=middle;whiteSpace=wrap;rounded=0;fontSize=14;" parent="1" vertex="1">
          <mxGeometry x="380" y="780" width="50" height="20" as="geometry" />
        </mxCell>
        <mxCell id="LaUAwsaN8R62iMyhsoGU-161" value="&lt;font style=&quot;font-size: 12px;&quot;&gt;10.0.6.2&lt;/font&gt;" style="text;html=1;strokeColor=none;fillColor=none;align=center;verticalAlign=middle;whiteSpace=wrap;rounded=0;fontSize=14;" parent="1" vertex="1">
          <mxGeometry x="495" y="970" width="50" height="20" as="geometry" />
        </mxCell>
        <mxCell id="LaUAwsaN8R62iMyhsoGU-162" value="&lt;font style=&quot;font-size: 12px;&quot;&gt;10.0.6.1&lt;/font&gt;" style="text;html=1;strokeColor=none;fillColor=none;align=center;verticalAlign=middle;whiteSpace=wrap;rounded=0;fontSize=14;" parent="1" vertex="1">
          <mxGeometry x="490" y="930" width="50" height="20" as="geometry" />
        </mxCell>
        <mxCell id="LaUAwsaN8R62iMyhsoGU-163" value="&lt;font style=&quot;font-size: 12px;&quot;&gt;10.0.4.1&lt;/font&gt;" style="text;html=1;strokeColor=none;fillColor=none;align=center;verticalAlign=middle;whiteSpace=wrap;rounded=0;fontSize=14;" parent="1" vertex="1">
          <mxGeometry x="340" y="890" width="50" height="20" as="geometry" />
        </mxCell>
        <mxCell id="LaUAwsaN8R62iMyhsoGU-164" value="&lt;font style=&quot;font-size: 12px;&quot;&gt;10.0.4.2&lt;/font&gt;" style="text;html=1;strokeColor=none;fillColor=none;align=center;verticalAlign=middle;whiteSpace=wrap;rounded=0;fontSize=14;" parent="1" vertex="1">
          <mxGeometry x="300" y="840" width="50" height="20" as="geometry" />
        </mxCell>
        <mxCell id="LaUAwsaN8R62iMyhsoGU-165" value="&lt;font style=&quot;font-size: 12px;&quot;&gt;10.0.5.2&lt;/font&gt;" style="text;html=1;strokeColor=none;fillColor=none;align=center;verticalAlign=middle;whiteSpace=wrap;rounded=0;fontSize=14;" parent="1" vertex="1">
          <mxGeometry x="215" y="820" width="50" height="20" as="geometry" />
        </mxCell>
        <mxCell id="LaUAwsaN8R62iMyhsoGU-166" value="&lt;font style=&quot;font-size: 12px;&quot;&gt;10.0.5.1&lt;/font&gt;" style="text;html=1;strokeColor=none;fillColor=none;align=center;verticalAlign=middle;whiteSpace=wrap;rounded=0;fontSize=14;" parent="1" vertex="1">
          <mxGeometry x="270" y="785" width="50" height="20" as="geometry" />
        </mxCell>
        <mxCell id="LaUAwsaN8R62iMyhsoGU-167" value="&lt;font style=&quot;font-size: 12px;&quot;&gt;&lt;b&gt;172.20.23.16&lt;/b&gt;&lt;/font&gt;" style="text;html=1;strokeColor=none;fillColor=none;align=center;verticalAlign=middle;whiteSpace=wrap;rounded=0;fontSize=14;" parent="1" vertex="1">
          <mxGeometry x="495" y="1020" width="80" height="20" as="geometry" />
        </mxCell>
        <mxCell id="LaUAwsaN8R62iMyhsoGU-168" value="&lt;font style=&quot;font-size: 12px;&quot;&gt;&lt;b&gt;172.20.23.11&lt;/b&gt;&lt;/font&gt;" style="text;html=1;strokeColor=none;fillColor=none;align=center;verticalAlign=middle;whiteSpace=wrap;rounded=0;fontSize=14;" parent="1" vertex="1">
          <mxGeometry x="700" y="750" width="80" height="20" as="geometry" />
        </mxCell>
        <mxCell id="LaUAwsaN8R62iMyhsoGU-169" value="&lt;font style=&quot;font-size: 12px;&quot;&gt;&lt;b&gt;172.20.23.12&lt;/b&gt;&lt;/font&gt;" style="text;html=1;strokeColor=none;fillColor=none;align=center;verticalAlign=middle;whiteSpace=wrap;rounded=0;fontSize=14;" parent="1" vertex="1">
          <mxGeometry x="545" y="750" width="80" height="20" as="geometry" />
        </mxCell>
        <mxCell id="LaUAwsaN8R62iMyhsoGU-170" value="&lt;font style=&quot;font-size: 12px;&quot;&gt;&lt;b&gt;172.20.23.13&lt;/b&gt;&lt;/font&gt;" style="text;html=1;strokeColor=none;fillColor=none;align=center;verticalAlign=middle;whiteSpace=wrap;rounded=0;fontSize=14;" parent="1" vertex="1">
          <mxGeometry x="432" y="850" width="86" height="10" as="geometry" />
        </mxCell>
        <mxCell id="LaUAwsaN8R62iMyhsoGU-171" value="&lt;font style=&quot;font-size: 12px;&quot;&gt;&lt;b&gt;172.20.23.14&lt;/b&gt;&lt;/font&gt;" style="text;html=1;strokeColor=none;fillColor=none;align=center;verticalAlign=middle;whiteSpace=wrap;rounded=0;fontSize=14;" parent="1" vertex="1">
          <mxGeometry x="310" y="750" width="80" height="20" as="geometry" />
        </mxCell>
        <mxCell id="LaUAwsaN8R62iMyhsoGU-172" value="&lt;font style=&quot;font-size: 12px;&quot;&gt;&lt;b&gt;172.20.23.15&lt;/b&gt;&lt;/font&gt;" style="text;html=1;strokeColor=none;fillColor=none;align=center;verticalAlign=middle;whiteSpace=wrap;rounded=0;fontSize=14;" parent="1" vertex="1">
          <mxGeometry x="170" y="750" width="80" height="20" as="geometry" />
        </mxCell>
        <mxCell id="LaUAwsaN8R62iMyhsoGU-173" value="&lt;span style=&quot;font-size: 12px;&quot;&gt;&lt;b&gt;Lo: 6.6.6.6&lt;br&gt;AS: 65530&lt;br&gt;&lt;/b&gt;&lt;/span&gt;" style="text;html=1;strokeColor=none;fillColor=none;align=center;verticalAlign=middle;whiteSpace=wrap;rounded=0;fontSize=14;" parent="1" vertex="1">
          <mxGeometry x="370" y="1010" width="80" height="30" as="geometry" />
        </mxCell>
        <mxCell id="LaUAwsaN8R62iMyhsoGU-174" value="&lt;span style=&quot;font-size: 12px;&quot;&gt;&lt;b&gt;Lo: 3.3.3.3&lt;br&gt;AS: 65530&lt;br&gt;&lt;/b&gt;&lt;/span&gt;" style="text;html=1;strokeColor=none;fillColor=none;align=center;verticalAlign=middle;whiteSpace=wrap;rounded=0;fontSize=14;" parent="1" vertex="1">
          <mxGeometry x="434" y="815" width="80" height="30" as="geometry" />
        </mxCell>
        <mxCell id="LaUAwsaN8R62iMyhsoGU-175" value="&lt;span style=&quot;font-size: 12px;&quot;&gt;&lt;b&gt;Lo: 1.1.1.1&lt;br&gt;AS: 65530&lt;br&gt;&lt;/b&gt;&lt;/span&gt;" style="text;html=1;strokeColor=none;fillColor=none;align=center;verticalAlign=middle;whiteSpace=wrap;rounded=0;fontSize=14;" parent="1" vertex="1">
          <mxGeometry x="700" y="720" width="80" height="30" as="geometry" />
        </mxCell>
        <mxCell id="LaUAwsaN8R62iMyhsoGU-176" value="&lt;span style=&quot;font-size: 12px;&quot;&gt;&lt;b&gt;Lo: 2.2.2.2&lt;br&gt;AS: 65530&lt;br&gt;&lt;/b&gt;&lt;/span&gt;" style="text;html=1;strokeColor=none;fillColor=none;align=center;verticalAlign=middle;whiteSpace=wrap;rounded=0;fontSize=14;" parent="1" vertex="1">
          <mxGeometry x="545" y="720" width="80" height="30" as="geometry" />
        </mxCell>
        <mxCell id="LaUAwsaN8R62iMyhsoGU-177" value="&lt;span style=&quot;font-size: 12px;&quot;&gt;&lt;b&gt;Lo: 4.4.4.4&lt;br&gt;AS: 65530&lt;br&gt;&lt;/b&gt;&lt;/span&gt;" style="text;html=1;strokeColor=none;fillColor=none;align=center;verticalAlign=middle;whiteSpace=wrap;rounded=0;fontSize=14;" parent="1" vertex="1">
          <mxGeometry x="310" y="720" width="80" height="30" as="geometry" />
        </mxCell>
        <mxCell id="LaUAwsaN8R62iMyhsoGU-178" value="&lt;span style=&quot;font-size: 12px;&quot;&gt;&lt;b&gt;Lo: 5.5.5.5&lt;br&gt;AS: 65530&lt;br&gt;&lt;/b&gt;&lt;/span&gt;" style="text;html=1;strokeColor=none;fillColor=none;align=center;verticalAlign=middle;whiteSpace=wrap;rounded=0;fontSize=14;" parent="1" vertex="1">
          <mxGeometry x="160" y="720" width="80" height="30" as="geometry" />
        </mxCell>
        <mxCell id="av7ua0j_1sHqPHWY3UU7-2" value="" style="points=[[0.03,0.03,0],[0.5,0,0],[0.97,0.03,0],[1,0.4,0],[0.97,0.745,0],[0.5,1,0],[0.03,0.745,0],[0,0.4,0]];verticalLabelPosition=bottom;sketch=0;html=1;verticalAlign=top;aspect=fixed;align=center;pointerEvents=1;shape=mxgraph.cisco19.workstation;fillColor=#005073;strokeColor=none;" vertex="1" parent="1">
          <mxGeometry x="9" y="236" width="50" height="40" as="geometry" />
        </mxCell>
        <mxCell id="av7ua0j_1sHqPHWY3UU7-6" value="" style="points=[[0.03,0.03,0],[0.5,0,0],[0.97,0.03,0],[1,0.4,0],[0.97,0.745,0],[0.5,1,0],[0.03,0.745,0],[0,0.4,0]];verticalLabelPosition=bottom;sketch=0;html=1;verticalAlign=top;aspect=fixed;align=center;pointerEvents=1;shape=mxgraph.cisco19.workstation;fillColor=#005073;strokeColor=none;" vertex="1" parent="1">
          <mxGeometry x="425" y="600" width="50" height="40" as="geometry" />
        </mxCell>
        <mxCell id="av7ua0j_1sHqPHWY3UU7-7" value="" style="points=[[0.03,0.03,0],[0.5,0,0],[0.97,0.03,0],[1,0.4,0],[0.97,0.745,0],[0.5,1,0],[0.03,0.745,0],[0,0.4,0]];verticalLabelPosition=bottom;sketch=0;html=1;verticalAlign=top;aspect=fixed;align=center;pointerEvents=1;shape=mxgraph.cisco19.workstation;fillColor=#005073;strokeColor=none;" vertex="1" parent="1">
          <mxGeometry x="851" y="236" width="50" height="40" as="geometry" />
        </mxCell>
        <mxCell id="av7ua0j_1sHqPHWY3UU7-9" value="&lt;span style=&quot;font-size: 14px;&quot;&gt;&lt;b&gt;VRF_DEVOPS&lt;/b&gt;&lt;/span&gt;" style="text;html=1;strokeColor=#1A1A1A;fillColor=none;align=center;verticalAlign=middle;whiteSpace=wrap;rounded=1;perimeterSpacing=0;" vertex="1" parent="1">
          <mxGeometry x="886" y="186" width="100" height="20" as="geometry" />
        </mxCell>
        <mxCell id="av7ua0j_1sHqPHWY3UU7-10" value="&lt;span style=&quot;font-size: 14px;&quot;&gt;&lt;b&gt;VRF_DEVOPS&lt;/b&gt;&lt;/span&gt;" style="text;html=1;strokeColor=#1A1A1A;fillColor=none;align=center;verticalAlign=middle;whiteSpace=wrap;rounded=1;perimeterSpacing=0;" vertex="1" parent="1">
          <mxGeometry x="-91" y="191" width="100" height="20" as="geometry" />
        </mxCell>
        <mxCell id="av7ua0j_1sHqPHWY3UU7-13" value="" style="sketch=0;points=[[0.5,0,0],[1,0.5,0],[0.5,1,0],[0,0.5,0],[0.145,0.145,0],[0.8555,0.145,0],[0.855,0.8555,0],[0.145,0.855,0]];verticalLabelPosition=bottom;html=1;verticalAlign=top;aspect=fixed;align=center;pointerEvents=1;shape=mxgraph.cisco19.rect;prIcon=router;fillColor=#FAFAFA;strokeColor=#005073;rounded=1;" vertex="1" parent="1">
          <mxGeometry x="430" y="460" width="40" height="40" as="geometry" />
        </mxCell>
        <mxCell id="av7ua0j_1sHqPHWY3UU7-14" value="" style="sketch=0;points=[[0.5,0,0],[1,0.5,0],[0.5,1,0],[0,0.5,0],[0.145,0.145,0],[0.8555,0.145,0],[0.855,0.8555,0],[0.145,0.855,0]];verticalLabelPosition=bottom;html=1;verticalAlign=top;aspect=fixed;align=center;pointerEvents=1;shape=mxgraph.cisco19.rect;prIcon=router;fillColor=#FAFAFA;strokeColor=#005073;rounded=1;" vertex="1" parent="1">
          <mxGeometry x="430" y="329" width="40" height="40" as="geometry" />
        </mxCell>
        <mxCell id="av7ua0j_1sHqPHWY3UU7-16" value="" style="sketch=0;points=[[0.5,0,0],[1,0.5,0],[0.5,1,0],[0,0.5,0],[0.145,0.145,0],[0.8555,0.145,0],[0.855,0.8555,0],[0.145,0.855,0]];verticalLabelPosition=bottom;html=1;verticalAlign=top;aspect=fixed;align=center;pointerEvents=1;shape=mxgraph.cisco19.rect;prIcon=router;fillColor=#FAFAFA;strokeColor=#005073;rounded=1;" vertex="1" parent="1">
          <mxGeometry x="545" y="235" width="40" height="40" as="geometry" />
        </mxCell>
        <mxCell id="av7ua0j_1sHqPHWY3UU7-17" value="" style="sketch=0;points=[[0.5,0,0],[1,0.5,0],[0.5,1,0],[0,0.5,0],[0.145,0.145,0],[0.8555,0.145,0],[0.855,0.8555,0],[0.145,0.855,0]];verticalLabelPosition=bottom;html=1;verticalAlign=top;aspect=fixed;align=center;pointerEvents=1;shape=mxgraph.cisco19.rect;prIcon=router;fillColor=#FAFAFA;strokeColor=#005073;rounded=1;" vertex="1" parent="1">
          <mxGeometry x="314" y="235" width="40" height="40" as="geometry" />
        </mxCell>
        <mxCell id="av7ua0j_1sHqPHWY3UU7-19" value="" style="sketch=0;points=[[0.5,0,0],[1,0.5,0],[0.5,1,0],[0,0.5,0],[0.145,0.145,0],[0.8555,0.145,0],[0.855,0.8555,0],[0.145,0.855,0]];verticalLabelPosition=bottom;html=1;verticalAlign=top;aspect=fixed;align=center;pointerEvents=1;shape=mxgraph.cisco19.rect;prIcon=router;fillColor=#FAFAFA;strokeColor=#005073;rounded=1;" vertex="1" parent="1">
          <mxGeometry x="700" y="235" width="40" height="40" as="geometry" />
        </mxCell>
        <mxCell id="av7ua0j_1sHqPHWY3UU7-20" value="" style="sketch=0;points=[[0.5,0,0],[1,0.5,0],[0.5,1,0],[0,0.5,0],[0.145,0.145,0],[0.8555,0.145,0],[0.855,0.8555,0],[0.145,0.855,0]];verticalLabelPosition=bottom;html=1;verticalAlign=top;aspect=fixed;align=center;pointerEvents=1;shape=mxgraph.cisco19.rect;prIcon=router;fillColor=#FAFAFA;strokeColor=#005073;rounded=1;" vertex="1" parent="1">
          <mxGeometry x="154" y="235" width="40" height="40" as="geometry" />
        </mxCell>
        <mxCell id="av7ua0j_1sHqPHWY3UU7-25" value="" style="endArrow=none;html=1;rounded=0;fontSize=14;exitX=1;exitY=0.5;exitDx=0;exitDy=0;exitPerimeter=0;entryX=0;entryY=0.5;entryDx=0;entryDy=0;entryPerimeter=0;startArrow=none;" edge="1" parent="1" source="av7ua0j_1sHqPHWY3UU7-20" target="LaUAwsaN8R62iMyhsoGU-37">
          <mxGeometry width="50" height="50" relative="1" as="geometry">
            <mxPoint x="194.00000000000023" y="255" as="sourcePoint" />
            <mxPoint x="254.00000000000023" y="255" as="targetPoint" />
          </mxGeometry>
        </mxCell>
        <mxCell id="LaUAwsaN8R62iMyhsoGU-37" value="eth2" style="text;html=1;strokeColor=#666666;fillColor=#f5f5f5;align=center;verticalAlign=middle;whiteSpace=wrap;rounded=1;fontSize=14;fontColor=#333333;" parent="1" vertex="1">
          <mxGeometry x="199" y="245" width="40" height="20" as="geometry" />
        </mxCell>
        <mxCell id="av7ua0j_1sHqPHWY3UU7-27" value="" style="group;strokeColor=default;rounded=1;" vertex="1" connectable="0" parent="1">
          <mxGeometry x="133.5" y="165" width="81" height="65" as="geometry" />
        </mxCell>
        <mxCell id="LaUAwsaN8R62iMyhsoGU-18" value="&lt;b&gt;&lt;font style=&quot;font-size: 14px;&quot;&gt;R01.NY&lt;/font&gt;&lt;/b&gt;" style="text;html=1;strokeColor=none;fillColor=none;align=center;verticalAlign=middle;whiteSpace=wrap;rounded=1;" parent="av7ua0j_1sHqPHWY3UU7-27" vertex="1">
          <mxGeometry x="10" y="44" width="60" height="20" as="geometry" />
        </mxCell>
        <mxCell id="LaUAwsaN8R62iMyhsoGU-86" value="&lt;font style=&quot;font-size: 12px;&quot;&gt;&lt;b&gt;172.20.23.15&lt;/b&gt;&lt;/font&gt;" style="text;html=1;strokeColor=none;fillColor=none;align=center;verticalAlign=middle;whiteSpace=wrap;rounded=1;fontSize=14;" parent="av7ua0j_1sHqPHWY3UU7-27" vertex="1">
          <mxGeometry x="1" y="30" width="80" height="20" as="geometry" />
        </mxCell>
        <mxCell id="LaUAwsaN8R62iMyhsoGU-92" value="&lt;span style=&quot;font-size: 12px;&quot;&gt;&lt;b&gt;Lo: 5.5.5.5&lt;br&gt;AS: 65530&lt;br&gt;&lt;/b&gt;&lt;/span&gt;" style="text;html=1;strokeColor=none;fillColor=none;align=center;verticalAlign=middle;whiteSpace=wrap;rounded=1;fontSize=14;" parent="av7ua0j_1sHqPHWY3UU7-27" vertex="1">
          <mxGeometry y="1" width="80" height="30" as="geometry" />
        </mxCell>
        <mxCell id="av7ua0j_1sHqPHWY3UU7-29" value="" style="group;strokeColor=default;rounded=1;" vertex="1" connectable="0" parent="1">
          <mxGeometry x="293" y="155" width="80" height="70" as="geometry" />
        </mxCell>
        <mxCell id="LaUAwsaN8R62iMyhsoGU-17" value="&lt;b&gt;&lt;font style=&quot;font-size: 14px;&quot;&gt;R01.LND&lt;/font&gt;&lt;/b&gt;" style="text;html=1;strokeColor=none;fillColor=none;align=center;verticalAlign=middle;whiteSpace=wrap;rounded=0;" parent="av7ua0j_1sHqPHWY3UU7-29" vertex="1">
          <mxGeometry x="10" y="50" width="60" height="20" as="geometry" />
        </mxCell>
        <mxCell id="LaUAwsaN8R62iMyhsoGU-91" value="&lt;span style=&quot;font-size: 12px;&quot;&gt;&lt;b&gt;Lo: 4.4.4.4&lt;br&gt;AS: 65530&lt;br&gt;&lt;/b&gt;&lt;/span&gt;" style="text;html=1;strokeColor=none;fillColor=none;align=center;verticalAlign=middle;whiteSpace=wrap;rounded=0;fontSize=14;" parent="1" vertex="1">
          <mxGeometry x="293" y="159" width="80" height="30" as="geometry" />
        </mxCell>
        <mxCell id="LaUAwsaN8R62iMyhsoGU-85" value="&lt;font style=&quot;font-size: 12px;&quot;&gt;&lt;b&gt;172.20.23.14&lt;/b&gt;&lt;/font&gt;" style="text;html=1;strokeColor=none;fillColor=none;align=center;verticalAlign=middle;whiteSpace=wrap;rounded=0;fontSize=14;" parent="1" vertex="1">
          <mxGeometry x="293" y="188" width="80" height="20" as="geometry" />
        </mxCell>
        <mxCell id="av7ua0j_1sHqPHWY3UU7-33" value="" style="group;rounded=1;strokeColor=default;" vertex="1" connectable="0" parent="1">
          <mxGeometry x="404" y="260" width="86" height="65" as="geometry" />
        </mxCell>
        <mxCell id="LaUAwsaN8R62iMyhsoGU-15" value="&lt;b&gt;&lt;font style=&quot;font-size: 14px;&quot;&gt;R01.LBN&lt;/font&gt;&lt;/b&gt;" style="text;html=1;strokeColor=none;fillColor=none;align=center;verticalAlign=middle;whiteSpace=wrap;rounded=0;" parent="av7ua0j_1sHqPHWY3UU7-33" vertex="1">
          <mxGeometry x="13" y="45" width="60" height="20" as="geometry" />
        </mxCell>
        <mxCell id="LaUAwsaN8R62iMyhsoGU-84" value="&lt;font style=&quot;font-size: 12px;&quot;&gt;&lt;b&gt;172.20.23.13&lt;/b&gt;&lt;/font&gt;" style="text;html=1;strokeColor=none;fillColor=none;align=center;verticalAlign=middle;whiteSpace=wrap;rounded=0;fontSize=14;" parent="av7ua0j_1sHqPHWY3UU7-33" vertex="1">
          <mxGeometry y="35" width="86" height="10" as="geometry" />
        </mxCell>
        <mxCell id="LaUAwsaN8R62iMyhsoGU-88" value="&lt;span style=&quot;font-size: 12px;&quot;&gt;&lt;b&gt;Lo: 3.3.3.3&lt;br&gt;AS: 65530&lt;br&gt;&lt;/b&gt;&lt;/span&gt;" style="text;html=1;strokeColor=none;fillColor=none;align=center;verticalAlign=middle;whiteSpace=wrap;rounded=0;fontSize=14;" parent="av7ua0j_1sHqPHWY3UU7-33" vertex="1">
          <mxGeometry x="2" width="80" height="30" as="geometry" />
        </mxCell>
        <mxCell id="av7ua0j_1sHqPHWY3UU7-35" value="" style="group;strokeColor=default;rounded=1;" vertex="1" connectable="0" parent="1">
          <mxGeometry x="522" y="157" width="80" height="70" as="geometry" />
        </mxCell>
        <mxCell id="LaUAwsaN8R62iMyhsoGU-14" value="&lt;b&gt;&lt;font style=&quot;font-size: 14px;&quot;&gt;R01.HKI&lt;/font&gt;&lt;/b&gt;" style="text;html=1;strokeColor=none;fillColor=none;align=center;verticalAlign=middle;whiteSpace=wrap;rounded=0;" parent="av7ua0j_1sHqPHWY3UU7-35" vertex="1">
          <mxGeometry x="15" y="50" width="60" height="20" as="geometry" />
        </mxCell>
        <mxCell id="LaUAwsaN8R62iMyhsoGU-83" value="&lt;font style=&quot;font-size: 12px;&quot;&gt;&lt;b&gt;172.20.23.12&lt;/b&gt;&lt;/font&gt;" style="text;html=1;strokeColor=none;fillColor=none;align=center;verticalAlign=middle;whiteSpace=wrap;rounded=0;fontSize=14;" parent="av7ua0j_1sHqPHWY3UU7-35" vertex="1">
          <mxGeometry y="30" width="80" height="20" as="geometry" />
        </mxCell>
        <mxCell id="LaUAwsaN8R62iMyhsoGU-90" value="&lt;span style=&quot;font-size: 12px;&quot;&gt;&lt;b&gt;Lo: 2.2.2.2&lt;br&gt;AS: 65530&lt;br&gt;&lt;/b&gt;&lt;/span&gt;" style="text;html=1;strokeColor=none;fillColor=none;align=center;verticalAlign=middle;whiteSpace=wrap;rounded=0;fontSize=14;" parent="av7ua0j_1sHqPHWY3UU7-35" vertex="1">
          <mxGeometry width="80" height="30" as="geometry" />
        </mxCell>
      </root>
    </mxGraphModel>
  </diagram>
</mxfile>
